<?xml version="1.0" encoding="utf-8"?>
<!-- Generator: Adobe Illustrator 28.4.1, SVG Export Plug-In . SVG Version: 6.00 Build 0)  -->
<svg version="1.1" id="Layer_1" xmlns="http://www.w3.org/2000/svg" xmlns:xlink="http://www.w3.org/1999/xlink" x="0px" y="0px"
	 viewBox="0 0 1920 1080" style="enable-background:new 0 0 1920 1080;" xml:space="preserve">
<style type="text/css">
	.st0{fill:#FFFFFF;}
</style>
<g>
	<g>
		<path class="st0" d="M879.26,214.5c-3.77,0-6.91-2.54-7.53-6h152.97c-0.62,3.46-3.76,6-7.53,6l-68.97,0H879.26z"/>
		<path d="M1024.08,209c-0.81,2.92-3.59,5-6.9,5l-68.97,0h-68.95c-3.31,0-6.09-2.08-6.9-5H1024.08 M1025.28,208H871.16
			c0.39,3.93,3.86,7,8.1,7h68.95v0h68.97C1021.42,215,1024.89,211.93,1025.28,208L1025.28,208z"/>
	</g>
	<g>
		<path class="st0" d="M930.67,299.5c-1.39,0-2.65-0.71-3.38-1.89c-0.73-1.18-0.78-2.63-0.16-3.86l17.16-31.02
			c0.88-1.61,1.44-2.22,3.81-2.22l0.23,0c2.37,0,2.93,0.61,3.81,2.22l17.17,31.04c0.62,1.22,0.56,2.67-0.17,3.85
			c-0.73,1.18-1.99,1.89-3.38,1.89L930.67,299.5L930.67,299.5z"/>
		<path d="M948.33,261L948.33,261c2.12,0,2.56,0.48,3.37,1.96l17.15,31.01c0.55,1.08,0.5,2.34-0.14,3.38
			c-0.63,1.03-1.74,1.65-2.96,1.65l-35.09,0c-1.21,0-2.32-0.62-2.95-1.65c-0.63-1.03-0.69-2.3-0.15-3.35l17.17-31.04
			c0.81-1.48,1.25-1.96,3.37-1.96l0.13,0L948.33,261 M948.33,260c-0.03,0-0.07,0-0.1,0v0l-0.02,0c-0.03,0-0.07,0-0.1,0
			c-2.52,0-3.27,0.7-4.25,2.48l-17.17,31.04c-1.51,2.97,0.65,6.48,3.98,6.48c0,0,0,0,0.01,0l35.09,0c0,0,0,0,0.01,0
			c3.33,0,5.48-3.51,3.98-6.48l-17.17-31.04C951.61,260.7,950.85,260,948.33,260L948.33,260z"/>
	</g>
	<g>
		<path class="st0" d="M988.86,388.5c-1.64-1.76-2.84-3.84-3.56-6.17c-0.49-1.61-0.75-3.29-0.77-4.99
			c-0.15-13.62-0.08-29.78-0.01-45.41l0-1.13c0-0.19-0.01-0.38-0.03-0.56l0-9.73l12.13,0.28c0.14,0,0.25-0.01,0.36-0.01
			c2.38,0,4.27,1.1,5.3,3.1l6.83,12.12l1.02-0.55l10.41-5.62c1.55-0.86,2.08-2.82,1.21-4.46l-4.49-8.1l-4.23-7.65l-27.26-49.25
			c-0.09-0.19-0.08-0.42,0.05-0.62c0.13-0.2,0.33-0.31,0.57-0.31l2.05,0.05l10.63,0.02l-0.85-0.86c-1.91-1.92-3.99-3.75-6-5.51
			l-0.78-0.68c-0.3-0.26-0.67-0.58-0.68-0.7c0,0,0-0.13,0.34-0.47c0.7-0.7,0.95-1.33,0.73-1.87c-0.24-0.6-0.99-0.9-2.29-0.92
			l-10.15,0.01c-0.94-0.43-8.1-3.73-13.36-5.33c-6.57-1.99-12.88-2.29-16.05-2.29c-1.12,0-1.78,0.04-1.81,0.04
			c-0.06-0.01-0.7-0.04-1.74-0.04c-3.17,0-9.48,0.3-16.05,2.29c-5.26,1.6-12.43,4.89-13.36,5.33H906.9
			c-1.31,0.02-2.06,0.32-2.3,0.92c-0.22,0.54,0.03,1.17,0.73,1.87c0.34,0.34,0.34,0.46,0.34,0.47c0,0.12-0.38,0.44-0.68,0.7
			l-0.77,0.68c-2.02,1.77-4.1,3.6-6.02,5.53l-0.85,0.86l10.18-0.02l2.07-0.05c0.22,0,0.43,0.11,0.56,0.31
			c0.12,0.2,0.14,0.44,0.04,0.65l-27.23,49.2l-4.23,7.65l-4.49,8.09c-0.87,1.65-0.34,3.61,1.21,4.47l11.43,6.18l6.82-12.1
			c1.04-2.01,2.92-3.11,5.3-3.11c0.11,0,0.22,0,0.33,0.01l12.15-0.29v9.77c-0.01,0.14-0.02,0.33-0.02,0.52l0,0.94
			c0.07,15.69,0.14,31.92-0.01,45.6c-0.02,1.7-0.28,3.38-0.77,4.99c-0.71,2.33-1.9,4.4-3.53,6.17h-26.92
			c-1.31-0.89-2.8-2.74-2.76-6.5c0.04-3.68,0.17-21.62,0.17-21.62c0-1.28-0.23-2.04-0.65-2.98c-1.41-3.19-3.63-8.66-4.84-11.64
			c-0.56-1.38-1.87-2.26-3.36-2.26l-9.32,0v-61.17c0.3,0.12,0.62,0.18,0.94,0.18h11.53l0.11-0.36c0.15-0.48,0.31-0.96,0.48-1.43
			c0.09-0.26,0.18-0.52,0.27-0.78c1.08-2.96,5.36-13.53,14.65-24.61c1.86-2.01,3.6-3.73,5.31-5.25c2.44-2.17,4.75-4.04,7.04-5.74
			c2.94-2.17,5.77-3.96,8.64-5.46c9.58-5.03,19.83-8.08,31.34-9.32c0.05-0.01,4.66-0.55,8.72-0.65c4.03,0.1,8.62,0.64,8.66,0.65
			c11.51,1.24,21.76,4.28,31.34,9.32c2.87,1.51,5.7,3.3,8.64,5.47c2.3,1.69,4.6,3.57,7.04,5.74c1.71,1.52,3.45,3.24,5.33,5.27
			c9.27,11.07,13.55,21.63,14.64,24.61c0.08,0.25,0.17,0.51,0.26,0.76c0.17,0.47,0.33,0.94,0.48,1.43l0.11,0.36h11.53
			c0.32,0,0.64-0.06,0.94-0.18v61.18l-10.02,0c-1.48,0-2.8,0.89-3.35,2.25c-1.21,2.98-3.46,8.45-4.88,11.65
			c-0.42,0.95-0.65,1.71-0.65,2.98c0,0,0.13,17.94,0.17,21.62c0.04,3.76-1.46,5.6-2.78,6.5H988.86z"/>
		<path d="M948.51,229.4c4.02,0.1,8.57,0.64,8.63,0.65c11.44,1.23,21.63,4.26,31.16,9.26c2.85,1.5,5.66,3.27,8.58,5.43
			c2.29,1.69,4.58,3.55,7.01,5.71c1.7,1.51,3.43,3.22,5.26,5.2c9.24,11.02,13.49,21.52,14.56,24.45c0.09,0.26,0.18,0.52,0.27,0.78
			c0.17,0.48,0.33,0.94,0.47,1.41l0.21,0.71h0.74h11.16c0.15,0,0.3-0.01,0.44-0.03V343l-9.52,0c-1.68,0-3.18,1.01-3.82,2.57
			c-1.21,2.98-3.46,8.46-4.87,11.63c-0.44,0.99-0.69,1.83-0.69,3.19c0,0.18,0.13,17.98,0.17,21.62c0.04,3.42-1.25,5.14-2.44,5.99
			l-26.74,0c-1.52-1.67-2.62-3.63-3.3-5.82c-0.48-1.56-0.73-3.19-0.75-4.85c-0.15-13.65-0.08-29.85-0.01-45.51l0-1.01
			c0-0.19-0.01-0.38-0.02-0.56v-9.22l11.61,0.27l0.03,0l0.03,0c0.1,0,0.21-0.01,0.31-0.01c2.22,0,3.9,0.98,4.87,2.86l6.58,11.68
			l0.29,0.51h0.58c0.25,0,0.25,0,1.08-0.44l0,0c0,0,0,0,0,0l0.22-0.12l0.09-0.05l0.07-0.04l0.06-0.03l9.97-5.39
			c1.79-0.99,2.41-3.25,1.4-5.15l-4.49-8.09l-4.23-7.65l-27.24-49.21c-0.02-0.05-0.01-0.1,0.02-0.15c0.03-0.05,0.08-0.08,0.12-0.08
			l2.08,0.05l9.41,0.02l2.41,0.01l-1.7-1.71c-1.92-1.93-4.01-3.76-6.02-5.53l-0.52-0.46l-0.26-0.22c-0.13-0.11-0.28-0.24-0.39-0.35
			c0.02-0.03,0.05-0.05,0.08-0.08c0.86-0.86,1.14-1.67,0.84-2.41c-0.49-1.2-2.19-1.23-2.76-1.24L979.52,248
			c-1.29-0.6-8.13-3.73-13.33-5.31c-6.63-2.01-12.99-2.31-16.19-2.31c-0.96,0-1.6,0.03-1.79,0.04c-0.21-0.01-0.83-0.04-1.77-0.04
			c-3.2,0-9.56,0.3-16.19,2.31c-5.2,1.58-12.04,4.71-13.33,5.31l-10.04,0c-0.56,0.01-2.26,0.03-2.75,1.24
			c-0.3,0.74-0.02,1.56,0.84,2.41c0.03,0.03,0.06,0.06,0.08,0.09c-0.11,0.11-0.26,0.24-0.4,0.35l-0.26,0.23l-0.52,0.46
			c-2.02,1.77-4.11,3.6-6.03,5.54l-1.7,1.71l2.41-0.01l9-0.02l2.04-0.05c0.06,0,0.11,0.03,0.14,0.08c0.03,0.05,0.04,0.1,0.02,0.15
			l-27.23,49.19l-4.23,7.65l-4.49,8.11c-1,1.88-0.38,4.14,1.42,5.14l9.95,5.37l0.09,0.05l0.37,0.2c0.82,0.44,0.82,0.44,1.07,0.44
			h0.58l0.29-0.51l6.6-11.71c0.96-1.85,2.63-2.82,4.85-2.82c0.1,0,0.21,0,0.31,0.01l0.03,0l0.03,0l11.61-0.27v9.22
			c-0.01,0.19-0.02,0.37-0.02,0.56l0,0.98c0.07,15.68,0.14,31.89-0.01,45.55c-0.02,1.66-0.27,3.29-0.75,4.85
			c-0.67,2.19-1.77,4.14-3.27,5.81l-26.54,0c-1.17-0.85-2.45-2.57-2.42-5.99c0.04-3.64,0.17-21.44,0.17-21.63
			c0-1.36-0.25-2.19-0.69-3.18c-1.4-3.17-3.63-8.65-4.83-11.63c-0.63-1.57-2.13-2.58-3.82-2.58l-8.82,0v-60.03
			c0.15,0.02,0.29,0.03,0.44,0.03h11.16h0.74l0.21-0.71c0.14-0.47,0.3-0.93,0.47-1.41c0.09-0.26,0.18-0.52,0.26-0.76
			c1.08-2.96,5.33-13.46,14.54-24.44c1.86-2.02,3.6-3.73,5.29-5.24c2.43-2.16,4.72-4.02,7.01-5.71c2.92-2.15,5.73-3.93,8.58-5.43
			c9.52-5,19.71-8.03,31.17-9.26C939.92,230.05,944.49,229.5,948.51,229.4 M948.51,228.4L948.51,228.4
			c-4.13,0.1-8.76,0.65-8.76,0.65c-11.38,1.22-21.69,4.21-31.51,9.37c-3.08,1.62-5.96,3.48-8.71,5.51c-2.45,1.81-4.8,3.74-7.08,5.77
			c-1.91,1.7-3.68,3.48-5.36,5.3c-7.75,9.25-12.56,18.83-14.74,24.78c-0.25,0.74-0.52,1.47-0.75,2.22h-11.16
			c-0.55,0-1.06-0.21-1.44-0.55V344l9.82,0c0,0,0,0,0,0c1.27,0,2.42,0.77,2.89,1.95c1.18,2.93,3.43,8.46,4.84,11.65
			c0.39,0.88,0.6,1.58,0.6,2.78c0,0-0.13,17.94-0.17,21.62c-0.04,4.12,1.69,6.08,3.11,7l27.28,0c0,0,0.01,0,0.01-0.01
			c1.85-1.95,3.07-4.17,3.79-6.52c0.51-1.66,0.77-3.39,0.79-5.13c0.15-13.96,0.08-30.86,0.01-46.54c0-0.17,0.01-0.35,0.02-0.52V320
			h-0.06l-12.57,0.3c-0.12,0-0.23-0.01-0.35-0.01c-2.75,0-4.69,1.33-5.74,3.36l-6.58,11.68c0,0-0.71-0.38-0.96-0.52
			c-0.06-0.03-0.09-0.05-0.09-0.05s0.03,0.02,0.09,0.05c0.07,0.04,0.21,0.11,0.4,0.22l-10.44-5.64c-1.34-0.75-1.73-2.43-1.01-3.79
			l4.48-8.09l4.23-7.65l27.25-49.23c0.38-0.78-0.19-1.68-1.05-1.68l-2.06,0.05l-8.98,0.02c2.06-2.08,4.28-4,6.51-5.95
			c1.03-0.91,1.55-1.19,0.62-2.12c-1.09-1.09-0.93-1.91,1.22-1.94h10.24c0,0,7.76-3.64,13.4-5.35c6.58-2,12.91-2.27,15.9-2.27
			c1.03,0,1.66,0.03,1.77,0.04c0.03,0,0.67-0.04,1.78-0.04c2.99,0,9.33,0.27,15.9,2.27c5.64,1.71,13.4,5.35,13.4,5.35l10.25-0.01
			c2.14,0.03,2.3,0.86,1.21,1.94c-0.93,0.93-0.41,1.21,0.62,2.12c2.22,1.95,4.44,3.87,6.5,5.95l-9.41-0.02l-2.06-0.05
			c-0.86,0-1.43,0.9-1.05,1.68l27.26,49.25l4.23,7.65l4.49,8.09c0.72,1.36,0.33,3.04-1.01,3.79l-9.96,5.38
			c-0.01,0-0.03,0.01-0.05,0.03l-0.07,0.04c-0.03,0.01-0.06,0.03-0.09,0.05l-0.22,0.12c-0.01,0-0.01,0.01-0.02,0.01l0.02-0.01
			c0,0,0.01,0,0.01-0.01c-0.29,0.16-0.61,0.33-0.61,0.33l-6.58-11.68c-1.05-2.03-2.99-3.37-5.74-3.37c-0.12,0-0.23,0-0.35,0.01
			l-12.58-0.3H984v10.29c0.01,0.17,0.02,0.34,0.02,0.52c-0.07,15.68-0.15,32.58,0.01,46.54c0.02,1.75,0.28,3.47,0.8,5.13
			c0.72,2.35,1.95,4.57,3.81,6.52c0,0,0.01,0,0.01,0.01l27.48,0c1.43-0.92,3.17-2.88,3.13-7c-0.04-3.68-0.17-21.61-0.17-21.61
			c0-1.2,0.22-1.9,0.61-2.78c1.42-3.2,3.69-8.74,4.88-11.66c0.48-1.18,1.62-1.94,2.89-1.94l10.52,0v-62.55
			c-0.39,0.34-0.89,0.55-1.44,0.55h-11.16c-0.23-0.75-0.5-1.48-0.75-2.22c-2.18-5.95-6.99-15.52-14.74-24.78
			c-1.69-1.82-3.45-3.61-5.36-5.3c-2.28-2.02-4.63-3.96-7.08-5.77c-2.75-2.03-5.63-3.89-8.71-5.51c-9.82-5.16-20.13-8.15-31.51-9.37
			C957.25,229.06,952.64,228.51,948.51,228.4L948.51,228.4z M1009.93,335C1009.93,335,1009.93,335,1009.93,335
			C1009.93,335,1009.93,335,1009.93,335L1009.93,335z"/>
	</g>
	<g>
		<polygon class="st0" points="1010.41,333.67 1010.43,333.63 1010.87,334.52 1010.85,334.53 		"/>
		<path d="M1010.67,334.06c0,0-0.01,0.01-0.05,0.02C1010.65,334.08,1010.66,334.07,1010.67,334.06
			C1010.67,334.07,1010.67,334.06,1010.67,334.06L1010.67,334.06z M1010.63,334.09c0,0-0.01,0.01-0.01,0.01c0,0-0.01,0-0.01,0.01
			C1010.61,334.1,1010.62,334.09,1010.63,334.09L1010.63,334.09z"/>
	</g>
	<g>
		<path class="st0" d="M885.85,334.11C885.75,334.05,885.72,334.04,885.85,334.11L885.85,334.11z"/>
		<path d="M885.76,334.06c0,0,0.03,0.01,0.09,0.05C885.79,334.08,885.76,334.06,885.76,334.06L885.76,334.06z"/>
	</g>
</g>
</svg>
